<svg id="SvgjsSvg1016" width="288" height="288" xmlns="http://www.w3.org/2000/svg" version="1.1" xmlns:xlink="http://www.w3.org/1999/xlink" xmlns:svgjs="http://svgjs.com/svgjs"><defs id="SvgjsDefs1017"></defs><g id="SvgjsG1018"><svg xmlns="http://www.w3.org/2000/svg" width="288" height="288" class="jam jam-picture-f" preserveAspectRatio="xMinYMin" viewBox="-2 -4 24 24"><path d="M20 10.536l-4.416-4.44a3 3 0 0 0-4.69.582L5.072 16H3a3 3 0 0 1-3-3V3a3 3 0 0 1 3-3h14a3 3 0 0 1 3 3v7.536zm-.011 2.724A3 3 0 0 1 17 16H7.64l4.969-8.293a1 1 0 0 1 1.563-.195l5.817 5.748zM6 9a3 3 0 1 0 0-6 3 3 0 0 0 0 6z" fill="#ffffff" class="color000 svgShape"></path></svg></g></svg>